<?xml version="1.0" encoding="UTF-8"?>
<svg version="1.1" xmlns="http://www.w3.org/2000/svg" width="1024" height="1024">
<path d="M0 0 C2.13956555 1.27001569 4.28022459 2.5381907 6.421875 3.8046875 C7.51306641 4.45147461 8.60425781 5.09826172 9.72851562 5.76464844 C19.05343461 11.24547396 28.52601673 16.46998478 38 21.6875 C39.702771 22.62625977 39.702771 22.62625977 41.43994141 23.58398438 C57.31990695 32.31742603 73.3757997 40.45055499 90 47.6875 C90.93102539 48.09774414 91.86205078 48.50798828 92.82128906 48.93066406 C120.7190195 61.16923077 149.62255431 70.71504332 179 78.6875 C180.00514648 78.96255371 181.01029297 79.23760742 182.04589844 79.52099609 C195.47707311 83.15582786 209.05777614 85.98165807 222.6875 88.75 C224.3924271 89.09678474 226.09734258 89.44362664 227.80224609 89.79052734 C228.63089172 89.95912262 229.45953735 90.1277179 230.31329346 90.30142212 C248.10393106 93.92355359 248.10393106 93.92355359 254.625 95.375 C255.83869263 95.62358765 255.83869263 95.62358765 257.0769043 95.87719727 C262.07088578 97.02744993 264.76446424 98.72487755 268 102.6875 C273.96445946 113.55133687 272.16327218 127.46736909 272.16796875 139.48828125 C272.17119376 141.44801354 272.1745587 143.4077456 272.17805481 145.36747742 C272.18403199 149.48367872 272.18589687 153.59985912 272.18530273 157.71606445 C272.18522247 161.85706038 272.19200262 165.99794334 272.20581055 170.13891602 C272.27359329 190.7927926 272.24112909 211.41137591 271.09765625 232.0390625 C271.05764181 232.76639902 271.01762737 233.49373554 270.97640038 234.24311256 C268.74864219 273.53736329 262.7582693 312.56558651 253 350.6875 C252.74863281 351.67526428 252.74863281 351.67526428 252.4921875 352.6829834 C240.18873003 400.96306874 222.34633038 447.6956358 197 490.6875 C196.20004124 492.06482573 195.40051764 493.44240435 194.6015625 494.8203125 C189.26663805 503.94150362 183.43510289 512.72329661 177.50537109 521.46630859 C176.05595744 523.60493419 174.61548284 525.74936074 173.17578125 527.89453125 C164.54339664 540.68603034 155.0667108 552.61508177 144.953125 564.26171875 C143.05690519 566.44828951 141.1921534 568.65454532 139.359375 570.89453125 C132.32105985 579.46480814 124.62221793 587.25498434 116.70556641 595.01464844 C113.22979078 598.42375445 109.80694898 601.88327264 106.3984375 605.359375 C87.02830648 625.0416177 87.02830648 625.0416177 79 628.6875 C79 629.3475 79 630.0075 79 630.6875 C77.07887577 632.35535705 75.14909884 633.90232446 73.125 635.4375 C71.83194486 636.43348161 70.53898046 637.42958102 69.24609375 638.42578125 C68.55499512 638.95510254 67.86389648 639.48442383 67.15185547 640.02978516 C64.9755037 641.7063711 62.81603062 643.40265092 60.66015625 645.10546875 C50.67003332 652.98066958 40.48370831 660.48366885 30 667.6875 C29.40751465 668.09887207 28.8150293 668.51024414 28.20458984 668.93408203 C-11.70958931 696.59480035 -11.70958931 696.59480035 -21.83203125 696.08203125 C-31.68377244 694.28919186 -40.83863 686.37587147 -49.05078125 680.9609375 C-51.48729022 679.36915008 -53.96102867 677.84118601 -56.4375 676.3125 C-68.7522932 668.50311895 -80.40148819 659.51314355 -92 650.6875 C-92.52400391 650.28966309 -93.04800781 649.89182617 -93.58789062 649.48193359 C-101.18748377 643.70561175 -108.67486592 637.81014969 -116 631.6875 C-116.5161084 631.25775879 -117.0322168 630.82801758 -117.56396484 630.38525391 C-131.51496561 618.73373132 -144.59033561 606.17447993 -157.48684692 593.37588501 C-158.47740148 592.39336149 -159.46943244 591.41232367 -160.46310425 590.43295288 C-166.34340117 584.62864078 -171.82545295 578.68212696 -176.95410156 572.20092773 C-179.11585706 569.54516725 -181.4015559 567.0537702 -183.75 564.5625 C-190.36727621 557.35202129 -196.17616052 549.54334385 -202 541.6875 C-202.82685303 540.5739917 -202.82685303 540.5739917 -203.67041016 539.43798828 C-214.54287588 524.73795455 -224.54407137 509.53866082 -233.78271484 493.76171875 C-234.63253304 492.31365309 -235.48743614 490.86856485 -236.34619141 489.42578125 C-248.62985848 468.7605657 -259.25571756 447.08762613 -268 424.6875 C-268.61391602 423.12249756 -268.61391602 423.12249756 -269.24023438 421.52587891 C-277.11396491 401.25820684 -283.36847405 380.67906457 -289 359.6875 C-289.30276855 358.56617676 -289.60553711 357.44485352 -289.91748047 356.28955078 C-300.49770545 316.73060707 -306.11383669 276.4666731 -309 235.6875 C-309.08886978 234.45822784 -309.17773956 233.22895569 -309.26930237 231.96243286 C-310.05105801 220.1057513 -310.1636375 208.28582348 -310.16796875 196.40625 C-310.17119298 194.29650857 -310.17455787 192.18676736 -310.17805481 190.07702637 C-310.18399709 185.68334434 -310.18589964 181.28968185 -310.18530273 176.89599609 C-310.18520101 171.31215016 -310.19888604 165.72843107 -310.21607494 160.14461517 C-310.22727743 155.79644208 -310.22921948 151.44829896 -310.22869301 147.10011292 C-310.22985946 145.04317282 -310.2342045 142.98623159 -310.24202538 140.92930603 C-310.275159 131.32214966 -310.22190448 121.73997091 -309.2980957 112.16992188 C-309.17255814 110.86277222 -309.04702057 109.55562256 -308.91767883 108.2088623 C-307.7604327 103.76822059 -306.19181042 101.93964883 -303 98.6875 C-300.86572266 97.59692383 -300.86572266 97.59692383 -298.5390625 97.08203125 C-297.57516602 96.86111816 -296.61126953 96.64020508 -295.61816406 96.41259766 C-294.42416992 96.17331543 -293.23017578 95.9340332 -292 95.6875 C-290.43196573 95.36377157 -288.86393191 95.04004092 -287.29589844 94.71630859 C-282.65859154 93.77158005 -278.01485378 92.86215596 -273.36929321 91.95901489 C-208.45293893 79.29755692 -146.2838 59.19989149 -87.88085938 27.68652344 C-85.36774445 26.35167579 -82.8123417 25.11224499 -80.25 23.875 C-67.72659508 17.65660115 -55.65007998 10.48284368 -43.6484375 3.3203125 C-43.03583572 2.95507477 -42.42323395 2.58983704 -41.79206848 2.21353149 C-38.78469422 0.41888398 -35.78175401 -1.38264358 -32.78491211 -3.19482422 C-31.69702393 -3.84725098 -30.60913574 -4.49967773 -29.48828125 -5.171875 C-28.04255737 -6.04537598 -28.04255737 -6.04537598 -26.56762695 -6.93652344 C-17.06630455 -12.02822764 -8.25068618 -4.99099558 0 0 Z M-24.4921875 7.671875 C-25.53270264 8.32325439 -25.53270264 8.32325439 -26.59423828 8.98779297 C-27.34688965 9.46619629 -28.09954102 9.94459961 -28.875 10.4375 C-45.94117696 21.06452367 -63.54113125 30.71929192 -81.25683594 40.21386719 C-83.73071214 41.54283806 -86.19835879 42.88251224 -88.6640625 44.2265625 C-97.1776302 48.84009799 -105.82015599 52.94792722 -114.703125 56.80078125 C-118.47514466 58.4400312 -122.17419781 60.20502566 -125.875 62 C-148.09114197 72.51027254 -171.58635325 80.32725535 -195 87.6875 C-196.84464844 88.27096191 -196.84464844 88.27096191 -198.7265625 88.86621094 C-222.53670104 96.27795223 -246.9154154 101.04360827 -271.34069824 105.94171143 C-278.90825111 107.45973352 -286.46076204 109.03378639 -294 110.6875 C-295.92404134 116.36163683 -296.2966648 121.39178431 -296.29052734 127.35913086 C-296.29724457 128.3071759 -296.30396179 129.25522095 -296.31088257 130.23199463 C-296.32988214 133.37216475 -296.33379358 136.51211961 -296.3359375 139.65234375 C-296.34238443 141.88147563 -296.3491141 144.11060671 -296.35610962 146.33973694 C-296.36810171 151.03974345 -296.37179048 155.73967654 -296.37060547 160.43969727 C-296.37044573 165.15665497 -296.38386597 169.87321271 -296.41162109 174.59008789 C-296.80904439 243.14812577 -289.1584054 308.84047382 -270 374.6875 C-269.63793457 375.93998535 -269.27586914 377.1924707 -268.90283203 378.48291016 C-260.29607892 407.98569937 -248.66417327 435.55968276 -234.87689209 462.94476318 C-234.08242457 464.52368927 -233.2921868 466.10474188 -232.50244141 467.68603516 C-226.40592422 479.8454119 -219.45722013 491.318606 -212 502.6875 C-211.36191406 503.66509277 -210.72382813 504.64268555 -210.06640625 505.64990234 C-202.43816561 517.31371654 -194.79267922 528.86335522 -186 539.6875 C-185.27941406 540.58726562 -184.55882812 541.48703125 -183.81640625 542.4140625 C-181.56939507 545.19378756 -179.29265406 547.94530593 -177 550.6875 C-176.56494141 551.20892578 -176.12988281 551.73035156 -175.68164062 552.26757812 C-163.68672789 566.59718473 -150.78153374 579.99953489 -137.61450195 593.24822998 C-136.3882041 594.48259664 -135.16338788 595.71843733 -133.94018555 596.95587158 C-126.61188934 604.36038891 -119.16919908 611.21017148 -111 617.6875 C-108.66569834 619.66278942 -106.3661003 621.67658173 -104.0625 623.6875 C-98.45997579 628.5227752 -92.71893252 633.08689218 -86.72558594 637.43457031 C-84.77253743 638.85265817 -82.82800246 640.28209087 -80.8828125 641.7109375 C-65.36189304 653.06404463 -49.37315987 663.60976317 -33 673.6875 C-31.70439917 674.48693394 -30.40882593 675.28641258 -29.11328125 676.0859375 C-26.07809154 677.95732378 -23.04000126 679.82393758 -20 681.6875 C9.30813678 665.24290235 36.66225691 646.55177517 63 625.6875 C64.52560547 624.48673828 64.52560547 624.48673828 66.08203125 623.26171875 C71.92507813 618.58214826 77.43646193 613.599796 82.87988281 608.46655273 C85.79984227 605.71333788 88.75219826 603.02528402 91.796875 600.41015625 C96.77430659 596.08039478 101.41003331 591.42350272 106.0625 586.75 C106.92166016 585.89470703 107.78082031 585.03941406 108.66601562 584.15820312 C113.65278504 579.1638145 118.43053756 574.06531241 123 568.6875 C123.96207166 567.57016789 124.92430478 566.45297478 125.88671875 565.3359375 C127.33546554 563.64462648 128.7821711 561.95159528 130.22802734 560.2578125 C132.83106348 557.21066783 135.44401296 554.17416825 138.08984375 551.1640625 C144.4448951 543.90638603 150.27576859 536.45743177 155.74365234 528.51025391 C157.0336063 526.63874278 158.33795049 524.77790245 159.64453125 522.91796875 C213.03486392 446.55413802 244.29108237 357.90448633 254.1875 265.5 C254.26667664 264.76190094 254.34585327 264.02380188 254.4274292 263.26333618 C254.91736119 258.62105847 255.35611038 253.97583326 255.76373291 249.32562256 C255.92402105 247.5358695 256.09254922 245.74683895 256.26849365 243.95855713 C258.52250022 220.77793083 258.30779985 197.5560188 258.26074219 174.29003906 C258.24921145 168.52961374 258.25602125 162.7693721 258.26788712 157.00895309 C258.27511545 152.53076795 258.27281564 148.05262646 258.26763153 143.57444 C258.26630483 141.44866158 258.26790812 139.32287909 258.27259064 137.19710541 C258.27768718 134.24164757 258.26990789 131.28649019 258.25878906 128.33105469 C258.26486176 127.03757111 258.26486176 127.03757111 258.27105713 125.71795654 C258.23408207 120.39460465 257.65928565 115.76563316 256 110.6875 C253.47286454 109.11399778 253.47286454 109.11399778 250 108.6875 C248.39109041 108.3429616 246.78220613 107.99830501 245.17333984 107.65356445 C243.26992032 107.28228763 241.36573432 106.91492605 239.4609375 106.55078125 C237.34644596 106.13846599 235.23202816 105.72577244 233.11767578 105.31274414 C232.01651428 105.09876984 230.91535278 104.88479553 229.78082275 104.66433716 C151.21524279 89.33939576 77.65520593 62.37733029 8.69482422 21.29199219 C5.34837152 19.29952189 1.9915627 17.32501851 -1.36669922 15.35253906 C-2.7662449 14.53030209 -4.16508478 13.70686173 -5.56298828 12.88183594 C-6.78292815 12.16198579 -8.00421042 11.44440405 -9.22705078 10.72949219 C-10.45998726 10.00487461 -11.68715699 9.27039167 -12.90966797 8.52832031 C-17.51592619 5.78022064 -19.87293687 4.73514918 -24.4921875 7.671875 Z " fill="#00E6EE" transform="translate(531,156.3125)"/>
<path d="M0 0 C1.216875 0.38414062 2.43375 0.76828125 3.6875 1.1640625 C15.48072827 5.33138114 26.54615534 11.82720805 36 20 C36.96808594 20.8353125 37.93617188 21.670625 38.93359375 22.53125 C52.31183907 34.30914635 61.58305859 47.87214088 67.8125 64.5625 C68.09037354 65.30491943 68.36824707 66.04733887 68.65454102 66.81225586 C72.66264463 78.07079577 74.44969655 88.79725423 74.29296875 100.73828125 C74.28872391 101.98506149 74.28447906 103.23184174 74.28010559 104.5164032 C74.26348433 108.4486672 74.22586318 112.38039426 74.1875 116.3125 C74.17071336 118.9993359 74.15854037 121.68618612 74.14648438 124.37304688 C74.11363521 130.91554383 74.06360397 137.45773353 74 144 C74.95986816 143.98694824 75.91973633 143.97389648 76.90869141 143.96044922 C78.16858887 143.95029785 79.42848633 143.94014648 80.7265625 143.9296875 C81.97518066 143.91663574 83.22379883 143.90358398 84.51025391 143.89013672 C92.23101404 144.13319969 98.54182025 147.58847136 104 153 C107.94331977 158.62215888 110.11527824 163.80518617 110.14044189 170.68777466 C110.14615204 171.626474 110.15186218 172.56517334 110.15774536 173.53231812 C110.15886322 174.5556424 110.15998108 175.57896667 110.16113281 176.63330078 C110.16609772 177.71687866 110.17106262 178.80045654 110.17617798 179.91687012 C110.19080474 183.50969071 110.19760616 187.10246699 110.203125 190.6953125 C110.20888057 193.20238241 110.21463825 195.70945232 110.22039795 198.21652222 C110.22956861 202.81077221 110.2358652 207.4050096 110.2388947 211.9992677 C110.24290902 218.05150218 110.25506538 224.1035802 110.28125 230.15576172 C110.30899136 236.6702716 110.32165547 243.18464767 110.32357025 249.69921494 C110.32657247 252.16841623 110.33451736 254.63761719 110.34775543 257.10678482 C110.5068479 289.09123007 104.31163166 317.77088324 87 345 C86.63519531 345.57508301 86.27039063 346.15016602 85.89453125 346.74267578 C74.84037379 363.75306228 59.3882473 379.47565724 42 390 C40.99235596 390.62092529 40.99235596 390.62092529 39.96435547 391.25439453 C8.52559259 410.38824637 -30.2013488 417.49834204 -66.41015625 409.63378906 C-92.35119601 403.28547277 -114.7414275 391.52351248 -134 373 C-134.5038623 372.52723633 -135.00772461 372.05447266 -135.52685547 371.56738281 C-143.3250357 364.23535994 -149.99578688 356.63850247 -155.88427734 347.69238281 C-156.93998809 346.091029 -158.02580606 344.50964222 -159.11328125 342.9296875 C-167.01770298 330.92724519 -171.97240685 317.33556928 -175.875 303.5625 C-176.06602295 302.89065674 -176.2570459 302.21881348 -176.45385742 301.52661133 C-177.03022223 299.36099572 -177.52110282 297.18933202 -178 295 C-178.17254807 294.22064087 -178.34509613 293.44128174 -178.52287292 292.63830566 C-180.78355236 280.47653499 -180.34861802 268.10000937 -180.37109375 255.77734375 C-180.38007461 253.22392224 -180.38919669 250.67050122 -180.39845276 248.11708069 C-180.4148759 242.78401082 -180.4226637 237.45100718 -180.42553711 232.11791992 C-180.42917644 225.98343623 -180.45913082 219.84945145 -180.50094169 213.71512026 C-180.54000491 207.77188877 -180.55113311 201.82880533 -180.55226326 195.88543892 C-180.55645034 193.37497806 -180.56882324 190.86451619 -180.58978081 188.35413933 C-180.61682157 184.83713696 -180.61183215 181.32149871 -180.59936523 177.80444336 C-180.61419952 176.78332458 -180.62903381 175.76220581 -180.64431763 174.71014404 C-180.56081462 166.38219454 -178.57602832 158.1882748 -173.05678463 151.72408962 C-165.72836318 144.71986913 -158.77942013 143.68695158 -148.92749023 143.84594727 C-147.28471274 143.88735483 -145.64228468 143.94226343 -144 144 C-144.10828125 142.86691406 -144.10828125 142.86691406 -144.21875 141.7109375 C-145.16653566 130.46914651 -145.1875621 119.27367966 -145 108 C-144.98743164 107.15147461 -144.97486328 106.30294922 -144.96191406 105.42871094 C-144.39628613 76.25847038 -134.67166125 50.5821109 -115 29 C-114.42894531 28.34644531 -113.85789062 27.69289063 -113.26953125 27.01953125 C-84.98889203 -3.58753587 -38.68517571 -12.37716136 0 0 Z M-109 43 C-111.20751943 45.55761061 -113.14480592 48.17801464 -115 51 C-115.55042969 51.79921875 -116.10085938 52.5984375 -116.66796875 53.421875 C-120.75911732 59.815988 -123.39302686 66.32946879 -125.8125 73.5 C-126.1024585 74.35360107 -126.39241699 75.20720215 -126.69116211 76.08666992 C-131.02123373 89.51844234 -131.28957571 102.45668386 -131.20581055 116.44873047 C-131.18734379 119.6520977 -131.18530275 122.85517838 -131.18554688 126.05859375 C-131.18063828 128.09375252 -131.17481286 130.12890932 -131.16796875 132.1640625 C-131.16685593 133.12228912 -131.1657431 134.08051575 -131.16459656 135.06777954 C-131.15821671 135.94985077 -131.15183685 136.831922 -131.14526367 137.74072266 C-131.14145187 138.51727203 -131.13764008 139.29382141 -131.13371277 140.09390259 C-131.11634198 142.08692188 -131.11634198 142.08692188 -130 144 C-121.75 144 -113.5 144 -105 144 C-104.96261719 141.27234375 -104.92523438 138.5446875 -104.88671875 135.734375 C-104.84016947 133.01669432 -104.78905933 130.29913365 -104.73754883 127.58154297 C-104.70481723 125.72973261 -104.67663506 123.87783482 -104.65356445 122.02587891 C-104.52470351 111.94182479 -104.08582833 102.04022283 -102.6015625 92.0546875 C-102.480728 91.24046326 -102.35989349 90.42623901 -102.23539734 89.58734131 C-101.15417615 82.91356811 -99.16730679 76.99171427 -96 71 C-95.55785156 70.1440625 -95.11570312 69.288125 -94.66015625 68.40625 C-85.8886946 52.66135484 -72.65512013 42.38107256 -55.53930664 37.23120117 C-36.88726272 32.10114043 -16.80931355 34.03796505 0.2578125 43.2421875 C5.03566883 46.30491592 9.01810134 49.97760746 13 54 C13.69867187 54.66515625 14.39734375 55.3303125 15.1171875 56.015625 C28.82379274 69.98889571 32.80146394 89.10379061 33.53515625 107.96484375 C33.57813339 108.99815323 33.62111053 110.03146271 33.66539001 111.09608459 C33.80106844 114.37643048 33.93185544 117.65695016 34.0625 120.9375 C34.15397334 123.16993516 34.24576676 125.40235722 34.33789062 127.63476562 C34.56289842 133.08968426 34.78128281 138.54481103 35 144 C43.25 144 51.5 144 60 144 C60.06930964 136.58386805 60.1289124 129.16888472 60.16479492 121.75268555 C60.17977205 119.23604499 60.20016086 116.71943004 60.22631836 114.20288086 C60.53330313 83.88362022 55.901459 59.54208668 34 37 C33.44957031 36.38769531 32.89914062 35.77539062 32.33203125 35.14453125 C17.20932424 18.82694369 -7.09765675 8.77946467 -29.11328125 7.78125 C-60.50610295 6.87896174 -87.85386262 19.92522469 -109 43 Z M-70 59 C-71.03125 59.7425 -72.0625 60.485 -73.125 61.25 C-83.67022692 71.3367388 -88.43773 83.907515 -91 98 C-91 113.51 -91 129.02 -91 145 C-54.04 144.67 -17.08 144.34 21 144 C22.94658478 99.50711999 22.94658478 99.50711999 3.32421875 62.1171875 C-0.19279595 58.9134531 -3.87077154 56.34900653 -8 54 C-9.00353516 53.41605469 -9.00353516 53.41605469 -10.02734375 52.8203125 C-28.50780547 42.7932897 -53.85133262 46.29956815 -70 59 Z M-163.77305603 162.43000793 C-167.16663918 166.8426783 -166.69105428 171.7739531 -166.63110352 177.11987305 C-166.63825882 178.2313974 -166.64541412 179.34292175 -166.65278625 180.48812866 C-166.6696905 184.1630773 -166.65024224 187.83680779 -166.62890625 191.51171875 C-166.62973554 194.08079631 -166.63219719 196.64987381 -166.63621521 199.21894836 C-166.63907544 204.61171766 -166.62489733 210.00404062 -166.59692383 215.39672852 C-166.56508354 221.58146138 -166.56480521 227.76556155 -166.5821386 233.95033807 C-166.59817662 239.94220707 -166.59104538 245.93378861 -166.57420158 251.92566872 C-166.56906646 254.45263982 -166.5694439 256.97962906 -166.57574654 259.50659752 C-166.62670153 292.2504358 -159.18383383 320.82232582 -139 347 C-138.28070313 347.95519531 -137.56140625 348.91039062 -136.8203125 349.89453125 C-117.48204307 374.65176629 -87.3844125 392.80493667 -56.1875 397.4375 C-19.52696964 400.78719313 16.02350304 394.09830512 45.1484375 370.4296875 C46.08945312 369.62789062 47.03046875 368.82609375 48 368 C48.87914062 367.26007813 49.75828125 366.52015625 50.6640625 365.7578125 C75.46868768 344.17855653 91.42538827 314.57870533 96 282 C96.26511827 278.09381177 96.293984 274.20405066 96.29052734 270.28979492 C96.29724457 269.17616577 96.30396179 268.06253662 96.31088257 266.91516113 C96.32973012 263.27021715 96.33377883 259.62545828 96.3359375 255.98046875 C96.34237027 253.43223497 96.34909899 250.88400191 96.35610962 248.33576965 C96.36804602 243.01264433 96.37187991 237.6895872 96.37060547 232.36645508 C96.36940029 226.22401247 96.39059575 220.08191904 96.4220928 213.93956488 C96.45142208 208.00699024 96.45858123 202.07452227 96.45738602 196.1418705 C96.45974536 193.6264636 96.46858755 191.11105407 96.48405075 188.59569359 C96.50363076 185.08457565 96.49790526 181.57436474 96.48583984 178.06323242 C96.49707886 177.02675064 96.50831787 175.99026886 96.51989746 174.92237854 C96.46933224 169.13602921 96.07803351 165.46028269 92 161 C87.34750274 157.25932943 82.90563606 157.58047246 77.20715332 157.6257782 C76.2141058 157.62180379 75.22105828 157.61782939 74.19791842 157.61373454 C70.86682648 157.60410191 67.53615822 157.61593578 64.20507812 157.62768555 C61.81839336 157.62525791 59.43170962 157.62153886 57.04502869 157.61662292 C51.23332859 157.60818474 45.42176492 157.61373209 39.61007392 157.62588587 C32.84189854 157.63951222 26.0737527 157.63786744 19.30556709 157.63575254 C7.22923928 157.63256308 -4.84702953 157.6442278 -16.92333984 157.66381836 C-28.64113156 157.68282232 -40.35885413 157.68990585 -52.07666016 157.68432617 C-64.83708478 157.678268 -77.597479 157.67844615 -90.3579011 157.689812 C-91.71862697 157.69101929 -93.07935285 157.69222528 -94.44007874 157.69342995 C-95.10957903 157.69403349 -95.77907933 157.69463702 -96.46886751 157.69525885 C-101.18643743 157.69913777 -105.90399603 157.69874448 -110.62156677 157.6968441 C-116.97120682 157.69496278 -123.32075795 157.70305322 -129.67037773 157.7189045 C-132.003261 157.72315308 -134.33615329 157.72399406 -136.66903877 157.72121429 C-139.84850842 157.7180001 -143.02771113 157.72705533 -146.20715332 157.73930359 C-147.13467895 157.73552427 -148.06220458 157.73174494 -149.01783705 157.72785109 C-155.12665683 157.76960227 -159.03355955 158.27682317 -163.77305603 162.43000793 Z " fill="#00E8EF" transform="translate(547,292)"/>
<path d="M0 0 C2.34924165 1.37844591 4.57070804 2.86260996 6.79296875 4.4375 C12.12996469 8.22610644 12.12996469 8.22610644 18.1875 10.5 C20 11 20 11 21.796875 12.8515625 C24.10358967 15.10101829 26.2139305 16.38988424 29.0625 17.875 C30.03574219 18.38933594 31.00898437 18.90367187 32.01171875 19.43359375 C33.49091797 20.20896484 33.49091797 20.20896484 35 21 C36.79355032 21.97571208 38.5852473 22.95483929 40.375 23.9375 C43.36552118 25.57220383 46.36203812 27.19255562 49.37109375 28.79296875 C50.50675781 29.39753906 51.64242188 30.00210938 52.8125 30.625 C53.85019531 31.17414063 54.88789062 31.72328125 55.95703125 32.2890625 C59 34 59 34 61.8359375 35.96484375 C65.67018855 38.43107189 69.62668385 40.15878997 73.8125 41.9375 C79.38615067 44.35274862 84.75099443 46.85633008 90.00390625 49.91796875 C93.83658452 51.99556539 97.93057636 53.45599441 102 55 C103.71023422 55.661775 105.41859486 56.32841329 107.125 57 C107.87007812 57.28875 108.61515625 57.5775 109.3828125 57.875 C111.53306285 58.79928672 113.56133225 59.79970555 115.63525391 60.87695312 C119.80573237 62.96919923 124.0456465 64.57812093 128.453125 66.09375 C129.234599 66.3671521 130.016073 66.6405542 130.82122803 66.92224121 C133.2957713 67.78650844 135.77283402 68.64328316 138.25 69.5 C139.89469614 70.0737463 141.53922874 70.64796162 143.18359375 71.22265625 C162.33931633 77.95205344 162.33931633 77.95205344 181.875 83.4375 C185.42776864 84.3114196 188.87223656 85.25786329 192.3125 86.5 C197.38364022 88.26387486 202.59250324 89.18211281 207.86328125 90.15625 C211.02597525 90.76730546 214.12778123 91.53308215 217.24609375 92.33984375 C226.01221241 94.56382653 234.88659134 96.27710673 243.75 98.0625 C246.3691785 98.591126 248.98817769 99.12058777 251.60675049 99.65220642 C253.22255378 99.98016094 254.83870158 100.3064248 256.45526123 100.63063049 C272.27640012 103.83832955 272.27640012 103.83832955 276 108 C280.3807951 120.04718653 279.1507766 134.2362838 279.1328125 146.91015625 C279.13348823 148.61160801 279.13446048 150.31305967 279.13571167 152.01451111 C279.13717561 155.55859304 279.13507615 159.10264956 279.13037109 162.64672852 C279.12467023 167.15722963 279.12796344 171.66767126 279.13394356 176.1781702 C279.13758086 179.68461036 279.13639619 183.19103674 279.13381577 186.69747734 C279.13315547 188.35942021 279.133943 190.0213644 279.13629532 191.68330574 C279.15992315 213.05672323 279.15992315 213.05672323 278 219 C277.34 219.33 276.68 219.66 276 220 C275.34 219.67 274.68 219.34 274 219 C273.67 219.66 273.34 220.32 273 221 C272.99191315 219.72737305 272.98382629 218.45474609 272.97549438 217.14355469 C272.89793707 205.13758371 272.81017348 193.13172472 272.71247292 181.12590027 C272.66257325 174.95391071 272.61624252 168.78193774 272.578125 162.60986328 C272.54119245 156.65107646 272.49481062 150.6924306 272.44193649 144.73376465 C272.42343493 142.46287514 272.40831141 140.19195547 272.39665604 137.92102051 C272.37972118 134.73496126 272.3506683 131.54922188 272.31884766 128.36328125 C272.31668747 127.42891739 272.31452728 126.49455353 272.31230164 125.53187561 C272.24234737 120.03218277 271.54482565 115.28401083 270 110 C269.37313293 109.87773544 268.74626587 109.75547089 268.10040283 109.62950134 C180.92733131 92.60727584 100.56235162 67.40076353 23.69482422 21.60449219 C20.34837152 19.61202189 16.9915627 17.63751851 13.63330078 15.66503906 C12.2337551 14.84280209 10.83491522 14.01936173 9.43701172 13.19433594 C8.21667195 12.47424983 6.99412642 11.75788418 5.76904297 11.04589844 C4.54176998 10.32030673 3.32788898 9.57176776 2.12548828 8.80566406 C-1.13232306 6.61679437 -1.13232306 6.61679437 -4.88793945 6.21826172 C-7.47641073 7.1763342 -9.70361905 8.43413092 -12.078125 9.84375 C-13.06570801 10.42592285 -14.05329102 11.0080957 -15.07080078 11.60791016 C-16.64450439 12.54449463 -16.64450439 12.54449463 -18.25 13.5 C-20.43959338 14.78992992 -22.62969781 16.07899277 -24.8203125 17.3671875 C-25.88540039 17.99463867 -26.95048828 18.62208984 -28.04785156 19.26855469 C-40.65593704 26.66324061 -53.52021114 33.61816905 -66.37255859 40.57617188 C-68.0330903 41.47602515 -69.69243135 42.37808219 -71.35009766 43.28320312 C-80.6261329 48.34622658 -90.0077805 52.90793339 -99.703125 57.11328125 C-103.47514466 58.7525312 -107.17419781 60.51752566 -110.875 62.3125 C-133.09114197 72.82277254 -156.58635325 80.63975535 -180 88 C-181.84464844 88.58346191 -181.84464844 88.58346191 -183.7265625 89.17871094 C-207.53670104 96.59045223 -231.9154154 101.35610827 -256.34069824 106.25421143 C-263.90825111 107.77223352 -271.46076204 109.34628639 -279 111 C-280.1288549 116.4569865 -280.17208019 121.77363208 -280.20532227 127.31982422 C-280.21522186 128.34482529 -280.22512146 129.36982635 -280.23532104 130.42588806 C-280.26682071 133.80213132 -280.29164781 137.17838864 -280.31640625 140.5546875 C-280.33698573 142.90024168 -280.35798247 145.24579224 -280.37937927 147.59133911 C-280.43449719 153.75619566 -280.48395175 159.92108511 -280.53222656 166.08599854 C-280.58251672 172.38027871 -280.63816353 178.67451127 -280.69335938 184.96875 C-280.80081519 197.3124593 -280.902288 209.65620999 -281 222 C-282.75145195 218.96232494 -283.2549765 216.76015972 -283.2784729 213.26702881 C-283.28963638 212.3191449 -283.30079987 211.37126099 -283.31230164 210.39465332 C-283.31446182 209.36175171 -283.31662201 208.3288501 -283.31884766 207.26464844 C-283.32889328 206.17166443 -283.3389389 205.07868042 -283.34928894 203.95257568 C-283.38019136 200.33818083 -283.39717591 196.72386029 -283.4140625 193.109375 C-283.43276844 190.60401772 -283.45234142 188.09866677 -283.4727478 185.59332275 C-283.51888249 179.67193873 -283.55626903 173.75054037 -283.58942068 167.82907319 C-283.63140833 160.42504421 -283.68697262 153.02112761 -283.7421875 145.6171875 C-283.8390254 132.41151943 -283.92378241 119.20580235 -284 106 C-282.24757145 105.35001044 -280.49394562 104.70324824 -278.73982239 104.05784607 C-277.76340192 103.69733375 -276.78698145 103.33682142 -275.78097248 102.96538448 C-272.45167802 101.80965596 -269.16978927 101.07567002 -265.69921875 100.47265625 C-264.40250244 100.24030273 -263.10578613 100.00794922 -261.76977539 99.76855469 C-261.10285675 99.65330444 -260.43593811 99.5380542 -259.74880981 99.41931152 C-256.21661395 98.80789049 -252.69046589 98.16339342 -249.1640625 97.51953125 C-248.46505325 97.39242767 -247.76604401 97.2653241 -247.04585266 97.1343689 C-238.48016405 95.5615703 -230.0012127 93.62056209 -221.53344727 91.59082031 C-220.02460227 91.2389455 -218.51389011 90.89471958 -216.99966431 90.56677246 C-211.88851824 89.45764862 -206.85527727 88.19082904 -201.828125 86.75 C-201.07552399 86.53574371 -200.32292297 86.32148743 -199.54751587 86.10073853 C-197.11367909 85.40503114 -194.68158993 84.70351828 -192.25 84 C-190.99826996 83.63850861 -190.99826996 83.63850861 -189.72125244 83.26971436 C-169.79800277 77.49616216 -150.08331709 71.17962339 -131 63 C-126.77784389 61.19050452 -122.55287236 59.39136468 -118.3125 57.625 C-117.27738281 57.19316406 -116.24226562 56.76132813 -115.17578125 56.31640625 C-113.11407793 55.46180106 -111.049126 54.61497599 -108.98046875 53.77734375 C-101.79772152 50.84964468 -94.90674437 47.52334516 -88 44 C-86.6687835 43.33690348 -85.33670601 42.67553346 -84.00390625 42.015625 C-74.21749814 37.16615023 -74.21749814 37.16615023 -64.69921875 31.8125 C-63 31 -63 31 -60 31 C-59.814375 30.38125 -59.62875 29.7625 -59.4375 29.125 C-57.61228163 26.4268511 -56.05869602 26.39569971 -52.99609375 25.6953125 C-49.8205886 24.58916785 -47.51468366 22.4604124 -44.91015625 20.3828125 C-42.43710299 18.592504 -39.90530615 17.88422361 -37 17 C-35.948125 16.29875 -34.89625 15.5975 -33.8125 14.875 C-31 13 -31 13 -28 13 C-28 12.34 -28 11.68 -28 11 C-26.730447 10.35165346 -25.45930294 9.70642185 -24.1875 9.0625 C-23.47980469 8.70285156 -22.77210938 8.34320313 -22.04296875 7.97265625 C-20 7 -20 7 -17 6 C-17 5.34 -17 4.68 -17 4 C-6.34915937 -2.19334596 -6.34915937 -2.19334596 0 0 Z " fill="#00F6F7" transform="translate(516,157)"/>
<path d="M0 0 C7.88892699 6.47337356 13.2208047 13.89006782 14.625 24.1875 C15.26614382 34.27378688 12.15817729 44.08724654 5.44140625 51.73046875 C1.20392423 55.53735214 -4.4208001 60.25 -10.25 60.25 C-10.23428955 61.43553467 -10.2185791 62.62106934 -10.20239258 63.8425293 C-10.14800435 68.250012 -10.11361754 72.65746515 -10.08520508 77.06518555 C-10.07013872 78.97116081 -10.04968176 80.87710152 -10.02368164 82.78295898 C-9.98720358 85.52596576 -9.97025208 88.26851328 -9.95703125 91.01171875 C-9.94154739 91.86086349 -9.92606354 92.71000824 -9.91011047 93.58488464 C-9.90877652 98.29713885 -10.16067159 101.43305283 -13.25 105.25 C-16.38871188 106.81935594 -18.78855822 106.60201103 -22.25 106.25 C-25.01246412 104.25889759 -26.93885829 102.68742507 -27.68252563 99.25180054 C-27.82893514 96.82289763 -27.81219839 94.44391714 -27.73828125 92.01171875 C-27.73120651 91.13095169 -27.72413177 90.25018463 -27.71684265 89.34272766 C-27.68893848 86.54010715 -27.62620943 83.73951265 -27.5625 80.9375 C-27.5374119 79.03323206 -27.51459962 77.12893268 -27.49414062 75.22460938 C-27.43912503 70.56563016 -27.35288151 65.90815811 -27.25 61.25 C-28.19238525 60.94457275 -29.13477051 60.63914551 -30.10571289 60.32446289 C-39.45102164 57.13099261 -45.23676572 50.67688764 -50.34765625 42.4921875 C-54.06046443 34.79026913 -53.65706536 23.75061331 -51.1484375 15.7265625 C-46.34419642 5.52718439 -39.74623972 -0.666254 -29.25 -4.75 C-19.09630725 -7.2449976 -8.6310638 -6.13691608 0 0 Z M-33.1484375 12.94921875 C-37.15195061 17.76319914 -39.12385732 22.98167919 -39.25 29.25 C-38.20500188 35.40279268 -35.76141055 40.72045306 -30.6015625 44.4375 C-25.05986329 47.69466198 -19.55775838 48.28903309 -13.25 47.25 C-7.66832651 45.19707941 -4.01947614 41.57834341 -1.16015625 36.421875 C1.01572301 31.2296481 1.40251768 26.42569989 -0.375 21.0625 C-2.58241432 16.04837336 -5.39490904 12.44550306 -10.0625 9.4375 C-18.56442141 6.27011752 -26.13113368 6.66829866 -33.1484375 12.94921875 Z " fill="#00EBF1" transform="translate(531.25,510.75)"/>
<path d="M0 0 C0.33 0 0.66 0 1 0 C1.268125 1.11375 1.53625 2.2275 1.8125 3.375 C2.56282766 6.38576718 3.4005483 9.34679251 4.32421875 12.30859375 C5.64578597 16.68126625 6.81810326 21.08373285 7.9375 25.51171875 C8.1054155 26.174599 8.27333099 26.83747925 8.44633484 27.52044678 C9.14161234 30.27153975 9.83448643 33.02319437 10.52050781 35.77661133 C11.02935838 37.81464888 11.54543692 39.85075156 12.0625 41.88671875 C12.36285156 43.08514404 12.66320312 44.28356934 12.97265625 45.51831055 C14.05853449 49.19837462 15.44029233 52.49836798 17 56 C18.08265374 59.09502129 19.06559293 62.21004478 20.04296875 65.33984375 C22.99740964 74.6266699 26.752822 83.23955573 31 92 C32.96736467 96.23089175 34.80633139 100.50475413 36.55078125 104.83203125 C41.19912251 116.34515009 46.01918865 127.71205327 52.82421875 138.15234375 C54.11727804 140.18429406 55.28038865 142.26281262 56.4375 144.375 C59.15660961 149.33287178 62.07001918 154.1647311 65 159 C65.43699219 159.75152344 65.87398438 160.50304687 66.32421875 161.27734375 C68.64558316 165.04888453 71.16645683 168.67243896 73.6875 172.3125 C74.19861328 173.05306641 74.70972656 173.79363281 75.23632812 174.55664062 C76.48953474 176.37203338 77.74412436 178.18645312 79 180 C78.34 180.33 77.68 180.66 77 181 C76.34 180.67 75.68 180.34 75 180 C74.67 180.66 74.34 181.32 74 182 C67.11836107 171.84839971 60.36754226 161.662232 54.20117188 151.05810547 C52.89132251 148.81379039 51.56228325 146.58132908 50.234375 144.34765625 C38.5148966 124.44046406 28.40157183 103.52220836 20 82 C19.59072266 80.95666504 19.18144531 79.91333008 18.75976562 78.83837891 C-4.01360759 20.21772149 -4.01360759 20.21772149 -3 4 C-2.34 4 -1.68 4 -1 4 C-0.67 2.68 -0.34 1.36 0 0 Z " fill="#00F5F7" transform="translate(243,499)"/>
<path d="M0 0 C4.31956658 4.31956658 4.12663041 11.44490318 4.22705078 17.25415039 C4.22673759 19.61867599 4.21564574 21.98321806 4.1953125 24.34765625 C4.1924826 25.60009628 4.18965271 26.85253632 4.18673706 28.14292908 C4.17749154 31.44238106 4.15958161 34.74163072 4.1373291 38.04101562 C4.11672119 41.41989693 4.10770368 44.79880808 4.09765625 48.17773438 C4.0756863 54.78523419 4.04227677 61.39260057 4 68 C2.68 68 1.36 68 0 68 C-0.00808685 67.38327423 -0.01617371 66.76654846 -0.02450562 66.13113403 C-0.11100517 59.67381237 -0.21052498 53.21678178 -0.31738281 46.75976562 C-0.35550968 44.35454218 -0.39039004 41.94926487 -0.421875 39.54394531 C-0.46788093 36.07337277 -0.52581543 32.60316583 -0.5859375 29.1328125 C-0.60326431 27.53688766 -0.60326431 27.53688766 -0.62094116 25.90872192 C-0.73277302 20.16618699 -1.23977817 14.84158102 -2.57705688 9.24923706 C-3.03965978 6.78908687 -3.06863898 4.4975986 -3 2 C-2.01 2 -1.02 2 0 2 C0 1.34 0 0.68 0 0 Z " fill="#00FBFC" transform="translate(608,368)"/>
<path d="M0 0 C4.46997267 3.0894505 8.72508013 6.51781246 11.87109375 10.984375 C12.296875 13.63671875 12.296875 13.63671875 11.87109375 15.984375 C10.88109375 16.644375 9.89109375 17.304375 8.87109375 17.984375 C8.87109375 18.974375 8.87109375 19.964375 8.87109375 20.984375 C3.87109375 15.234375 3.87109375 15.234375 3.87109375 12.984375 C3.31421875 12.71625 2.75734375 12.448125 2.18359375 12.171875 C-0.32869371 10.88178144 -2.70673062 9.43768038 -5.12890625 7.984375 C-8.12041077 6.30228323 -11.12327613 4.64107308 -14.12890625 2.984375 C-13.94140625 0.609375 -13.94140625 0.609375 -13.12890625 -2.015625 C-7.93300307 -5.40386256 -4.82280148 -2.85310915 0 0 Z " fill="#00CDD8" transform="translate(550.12890625,336.015625)"/>
<path d="M0 0 C1.98 0.495 1.98 0.495 4 1 C4 15.85 4 30.7 4 46 C2.68 46.66 1.36 47.32 0 48 C-1.17210616 45.65578767 -1.12677084 44.26967765 -1.12939453 41.65795898 C-1.13254669 40.7604039 -1.13569885 39.86284882 -1.13894653 38.93809509 C-1.13591019 37.48180443 -1.13591019 37.48180443 -1.1328125 35.99609375 C-1.13376923 35.0024733 -1.13472595 34.00885284 -1.13571167 32.98512268 C-1.13639286 30.88274065 -1.1345428 28.78035652 -1.13037109 26.67797852 C-1.12501638 23.44738072 -1.13032105 20.21692161 -1.13671875 16.98632812 C-1.13605807 14.94791636 -1.13477711 12.90950468 -1.1328125 10.87109375 C-1.13483673 9.89820908 -1.13686096 8.9253244 -1.13894653 7.92295837 C-1.13579437 7.02855545 -1.13264221 6.13415253 -1.12939453 5.21264648 C-1.12859894 4.42147934 -1.12780334 3.63031219 -1.12698364 2.81517029 C-1 1 -1 1 0 0 Z " fill="#00FAFB" transform="translate(444,390)"/>
<path d="M0 0 C1.2676429 3.66207949 0.94797478 6.26004472 0 10 C-1.53546998 12.94633471 -3.36004759 15.64616531 -5.25 18.375 C-5.72824219 19.11105469 -6.20648437 19.84710937 -6.69921875 20.60546875 C-8.03947179 22.56318255 -9.30766427 24.33660298 -11 26 C-13.859375 26.4765625 -13.859375 26.4765625 -16 26 C-15.38511719 24.78763672 -15.38511719 24.78763672 -14.7578125 23.55078125 C-14.21898437 22.48214844 -13.68015625 21.41351562 -13.125 20.3125 C-12.59132813 19.25675781 -12.05765625 18.20101562 -11.5078125 17.11328125 C-9.99286124 14.09969607 -9.99286124 14.09969607 -8.95703125 11.265625 C-7.63028904 8.1247659 -5.45215708 6.33253966 -3 4 C-1.97186389 2.68824014 -0.95915568 1.3630107 0 0 Z " fill="#00F0F5" transform="translate(712,663)"/>
<path d="M0 0 C1.76953125 1.609375 1.76953125 1.609375 3 3 C2.195625 3.144375 1.39125 3.28875 0.5625 3.4375 C-1.92103706 3.74135249 -1.92103706 3.74135249 -3 5 C-2.34 5.33 -1.68 5.66 -1 6 C-1 6.99 -1 7.98 -1 9 C-4.87729472 8.42558597 -7.21519058 6.70745361 -10 4 C-10 2.68 -10 1.36 -10 0 C-11.65 -0.33 -13.3 -0.66 -15 -1 C-15 -1.33 -15 -1.66 -15 -2 C-9.45610677 -3.56366219 -5.07911877 -2.43797701 0 0 Z " fill="#00CAD6" transform="translate(529,509)"/>
<path d="M0 0 C2.97 1.98 5.94 3.96 9 6 C8.67 6.66 8.34 7.32 8 8 C7.34 8 6.68 8 6 8 C6 9.65 6 11.3 6 13 C4.66666667 12 3.33333333 11 2 10 C1.2575 9.566875 0.515 9.13375 -0.25 8.6875 C-2 7 -2 7 -2.25 3.8125 C-2.1675 2.884375 -2.085 1.95625 -2 1 C-1.34 0.67 -0.68 0.34 0 0 Z " fill="#00C7D4" transform="translate(641,438)"/>
<path d="M0 0 C2.70918332 0.62148303 5.41731127 1.24706561 8.125 1.875 C8.88554688 2.04902344 9.64609375 2.22304688 10.4296875 2.40234375 C14.70725424 3.39798428 18.85405809 4.52971389 23 6 C22.67 6.99 22.34 7.98 22 9 C14.74 7.02 7.48 5.04 0 3 C0 2.01 0 1.02 0 0 Z " fill="#00D9E1" transform="translate(530,288)"/>
<path d="M0 0 C0.66 0.33 1.32 0.66 2 1 C0.77083333 2.22916667 -0.45833333 3.45833333 -1.6875 4.6875 C-2.42097656 5.42226563 -3.15445313 6.15703125 -3.91015625 6.9140625 C-5.47220154 8.47318808 -7.04572625 10.02082801 -8.625 11.5625 C-10.46821272 13.45421831 -12.13390799 15.34538875 -13.8125 17.375 C-17.16428168 21.35688163 -21.01295798 24.67071872 -25 28 C-25 25 -25 25 -22.70507812 22.36450195 C-21.6548023 21.3147016 -20.59625766 20.27313331 -19.53125 19.23828125 C-18.97634888 18.68762497 -18.42144775 18.13696869 -17.84973145 17.56962585 C-16.07339313 15.81009875 -14.2869152 14.06127835 -12.5 12.3125 C-11.29489115 11.12243479 -10.09045517 9.93168777 -8.88671875 8.74023438 C-5.93223292 5.81885021 -2.96861031 2.90702744 0 0 Z " fill="#00F7F9" transform="translate(647,732)"/>
<path d="M0 0 C-2.04071515 0.33910994 -4.08262621 0.67102704 -6.125 1 C-7.83042969 1.2784375 -7.83042969 1.2784375 -9.5703125 1.5625 C-12.76137602 1.96956049 -15.78817791 2.07809902 -19 2 C-18.67 1.01 -18.34 0.02 -18 -1 C-12.11614923 -2.56902687 -5.16397848 -3.44265232 0 0 Z M-21 2 C-19 3 -19 3 -19 3 Z " fill="#00DFE8" transform="translate(520,507)"/>
<path d="M0 0 C-2 2 -2 2 -5 2.3125 C-5.99 2.539375 -6.98 2.76625 -8 3 C-9.65050309 5.70082323 -10.01263073 7.46950955 -9.9375 10.625 C-10 13 -10 13 -11.50390625 14.6484375 C-11.99761719 15.09445312 -12.49132812 15.54046875 -13 16 C-13.47676175 11.23238247 -13.83824 7.36767485 -10.6875 3.5 C-7.09334016 0.15659549 -4.73939426 -0.12809174 0 0 Z " fill="#00F4F7" transform="translate(236,254)"/>
<path d="M0 0 C0 0.66 0 1.32 0 2 C-6.09339169 3.88341198 -10.72532201 4.0748291 -17 3 C-17 2.67 -17 2.34 -17 2 C-5.47835991 -0.29612756 -5.47835991 -0.29612756 0 0 Z " fill="#00DFE5" transform="translate(504,287)"/>
<path d="M0 0 C0.66 0 1.32 0 2 0 C2.28780586 3.05074215 2.45787911 5.96183742 2 9 C-0.5 11.0625 -0.5 11.0625 -3 12 C-2.14285714 3.42857143 -2.14285714 3.42857143 0 0 Z " fill="#00F0F6" transform="translate(787,475)"/>
<path d="M0 0 C1.44098611 0.76429661 2.87766054 1.53672555 4.3125 2.3125 C5.11300781 2.74175781 5.91351562 3.17101562 6.73828125 3.61328125 C8.83787272 4.90059554 10.35447721 6.18406708 12 8 C9 9 9 9 6.73828125 7.890625 C5.93777344 7.34921875 5.13726563 6.8078125 4.3125 6.25 C3.50425781 5.71890625 2.69601562 5.1878125 1.86328125 4.640625 C1.24839844 4.09921875 0.63351562 3.5578125 0 3 C0 2.01 0 1.02 0 0 Z " fill="#00D4DC" transform="translate(568,302)"/>
<path d="M0 0 C-0.25 2.375 -0.25 2.375 -1 5 C-3.56310828 6.7941758 -4.83119306 7 -8 7 C-6.47663111 3.31852519 -4.31953005 0 0 0 Z " fill="#00F4F8" transform="translate(691,699)"/>
<path d="M0 0 C4.00972202 3.67557852 6.45335415 7.18966896 9 12 C8.34 12.66 7.68 13.32 7 14 C7 13.01 7 12.02 7 11 C6.34 11 5.68 11 5 11 C5 10.01 5 9.02 5 8 C4.01 7.67 3.02 7.34 2 7 C0.8125 3.4375 0.8125 3.4375 0 0 Z " fill="#00D9E1" transform="translate(323,666)"/>
<path d="M0 0 C0.33 0.66 0.66 1.32 1 2 C-1.31 5.3 -3.62 8.6 -6 12 C-6.66 10.68 -7.32 9.36 -8 8 C-6.71034824 6.62437146 -5.37310707 5.29233607 -4 4 C-3.34 4 -2.68 4 -2 4 C-1.34 2.68 -0.68 1.36 0 0 Z " fill="#00F6F8" transform="translate(632,636)"/>
<path d="M0 0 C2.50191281 1.2509564 4.02989568 3.02989568 6 5 C6.66 5.33 7.32 5.66 8 6 C8 6.99 8 7.98 8 9 C4.12867972 8.42647107 1.91827204 6.51295648 -1 4 C-0.67 2.68 -0.34 1.36 0 0 Z " fill="#00D3DE" transform="translate(520,509)"/>
<path d="M0 0 C3.63559661 3.43361902 6.36113346 6.7973607 9 11 C6 11 6 11 3.9375 9.4375 C1.55648738 6.44203251 0.85341648 3.69813807 0 0 Z " fill="#00D8E0" transform="translate(401,630)"/>
<path d="M0 0 C3.9429464 1.46596725 5.01834588 3.37308275 6.75 7.125 C7.17796875 8.03507813 7.6059375 8.94515625 8.046875 9.8828125 C8.51867187 10.93082031 8.51867187 10.93082031 9 12 C8.34 12.66 7.68 13.32 7 14 C6.896875 13.401875 6.79375 12.80375 6.6875 12.1875 C6.18145319 9.96164063 6.18145319 9.96164063 4.625 8.6875 C2.18338738 6.1519792 1.29220897 3.2612893 0 0 Z " fill="#00DAE3" transform="translate(389,612)"/>
<path d="M0 0 C-2.49505962 2.49505962 -3.67328888 2.35948376 -7.125 2.625 C-8.03507813 2.69976562 -8.94515625 2.77453125 -9.8828125 2.8515625 C-10.93082031 2.92503906 -10.93082031 2.92503906 -12 3 C-12 2.01 -12 1.02 -12 0 C-7.74433453 -1.16063604 -4.3164922 -0.76173392 0 0 Z " fill="#00D8E0" transform="translate(261,250)"/>
<path d="M0 0 C1.13116179 3.39348537 0.96678184 4.61626354 0 8 C-1.5625 10.8125 -1.5625 10.8125 -3 13 C-3.66 12.67 -4.32 12.34 -5 12 C-4.67 11.01 -4.34 10.02 -4 9 C-3.34 9 -2.68 9 -2 9 C-1.7834375 7.0509375 -1.7834375 7.0509375 -1.5625 5.0625 C-1.125 1.125 -1.125 1.125 0 0 Z " fill="#00F4F7" transform="translate(642,615)"/>
<path d="M0 0 C2.31 0.66 4.62 1.32 7 2 C7 2.99 7 3.98 7 5 C5.35 5.33 3.7 5.66 2 6 C0 3 0 3 0 0 Z " fill="#00D4DD" transform="translate(463,681)"/>
<path d="M0 0 C0.99 0.33 1.98 0.66 3 1 C2.35455571 4.48539917 0.89865603 7.02819057 -1 10 C-2.46726798 6.18510326 -1.43336419 3.70988378 0 0 Z " fill="#00F1F4" transform="translate(728,638)"/>
<path d="M0 0 C3.63559661 3.43361902 6.36113346 6.7973607 9 11 C5.17035345 9.43977363 2.67809511 7.12444429 0 4 C0 2.68 0 1.36 0 0 Z " fill="#00DEE4" transform="translate(334,682)"/>
<path d="M0 0 C0 0.99 0 1.98 0 3 C-3.65079826 4.61064629 -7.0507432 5.44894091 -11 6 C-8.43080387 1.71800646 -5.02925904 0 0 0 Z " fill="#00D7DE" transform="translate(557,682)"/>
<path d="M0 0 C2.12046792 3.53411321 2.53199289 6.94393835 3 11 C2.01 10.67 1.02 10.34 0 10 C-0.74926071 6.33694766 -1.2380014 3.57644848 0 0 Z " fill="#00D8DF" transform="translate(617,366)"/>
<path d="M0 0 C2.93200474 2.85276137 5.64315404 5.65079784 8 9 C7.34 9.66 6.68 10.32 6 11 C5.731875 10.360625 5.46375 9.72125 5.1875 9.0625 C4.11332248 6.66868314 4.11332248 6.66868314 1 6 C0.67 4.02 0.34 2.04 0 0 Z " fill="#00DAE1" transform="translate(343,694)"/>
<path d="M0 0 C-0.33 2.31 -0.66 4.62 -1 7 C-1.99 6.67 -2.98 6.34 -4 6 C-3.625 3.5625 -3.625 3.5625 -3 1 C-1 0 -1 0 0 0 Z " fill="#00F0F5" transform="translate(784,502)"/>
<path d="M0 0 C4.12751449 0.60698743 7.3321148 2.03810791 11 4 C11 4.66 11 5.32 11 6 C7.2089881 4.55049545 3.6125362 2.84827434 0 1 C0 0.67 0 0.34 0 0 Z " fill="#00D9E6" transform="translate(536,338)"/>
<path d="M0 0 C1.17539996 0.92652701 2.34010577 1.86663387 3.5 2.8125 C4.1496875 3.33457031 4.799375 3.85664062 5.46875 4.39453125 C7 6 7 6 7 9 C6.34 9 5.68 9 5 9 C2.82796 6.03812728 1.16438003 3.49314009 0 0 Z " fill="#00DDE3" transform="translate(364,719)"/>
<path d="M0 0 C0 0.99 0 1.98 0 3 C-0.66 3.66 -1.32 4.32 -2 5 C-2.6425235 7.06874034 -2.6425235 7.06874034 -3 9 C-3.66 9 -4.32 9 -5 9 C-5.33 8.01 -5.66 7.02 -6 6 C-4.02 4.02 -2.04 2.04 0 0 Z " fill="#00F7FA" transform="translate(467,341)"/>
<path d="M0 0 C-0.33 0.66 -0.66 1.32 -1 2 C-3.64 1.67 -6.28 1.34 -9 1 C-5.64919071 -1.10976881 -3.77897651 -1.0497157 0 0 Z " fill="#00D7DE" transform="translate(501,328)"/>
<path d="M0 0 C0.99 0.33 1.98 0.66 3 1 C1.35 2.65 -0.3 4.3 -2 6 C-2.66 5.67 -3.32 5.34 -4 5 C-2.68 3.35 -1.36 1.7 0 0 Z " fill="#00F1F8" transform="translate(661,728)"/>
<path d="M0 0 C0 0.66 0 1.32 0 2 C-1.65 2.33 -3.3 2.66 -5 3 C-5 3.66 -5 4.32 -5 5 C-6.65 4.67 -8.3 4.34 -10 4 C-6.86268382 1.90845588 -3.85464592 0 0 0 Z " fill="#00DFE3" transform="translate(370,218)"/>
</svg>
