<?xml version="1.0" encoding="UTF-8"?>
<svg version="1.1" xmlns="http://www.w3.org/2000/svg" width="48" height="48">
<path d="M0 0 C11.88 0 23.76 0 36 0 C36 12.54 36 25.08 36 38 C24.12 38 12.24 38 0 38 C0 25.46 0 12.92 0 0 Z " fill="#FDFDFD" transform="translate(6,6)"/>
<path d="M0 0 C11.88 0 23.76 0 36 0 C36 12.54 36 25.08 36 38 C24.12 38 12.24 38 0 38 C0 25.46 0 12.92 0 0 Z M2 2 C2 12.56 2 23.12 2 34 C12.56 34 23.12 34 34 34 C34 23.44 34 12.88 34 2 C23.44 2 12.88 2 2 2 Z " fill="#000000" transform="translate(6,6)"/>
<path d="M0 0 C4.85939959 0 9.22127289 0.06132146 14 1 C16.42130331 4.63195496 16.21022785 6.38349348 16.125 10.6875 C16.10695313 11.86699219 16.08890625 13.04648437 16.0703125 14.26171875 C16.04710938 15.16535156 16.02390625 16.06898437 16 17 C14.35 17 12.7 17 11 17 C10.67 13.37 10.34 9.74 10 6 C8.68 5.67 7.36 5.34 6 5 C5.67 8.96 5.34 12.92 5 17 C3.35 17 1.7 17 0 17 C0 11.39 0 5.78 0 0 Z " fill="#060606" transform="translate(20,19)"/>
<path d="M0 0 C5 0 5 0 8 2 C7.01 3.485 7.01 3.485 6 5 C5.54084493 7.96842658 5.54084493 7.96842658 5.375 11.1875 C5.30023437 12.27417969 5.22546875 13.36085938 5.1484375 14.48046875 C5.09945313 15.31191406 5.05046875 16.14335938 5 17 C3.35 17 1.7 17 0 17 C0 11.39 0 5.78 0 0 Z " fill="#000000" transform="translate(20,19)"/>
<path d="M0 0 C1.65 0 3.3 0 5 0 C5 5.61 5 11.22 5 17 C3.35 17 1.7 17 0 17 C0 11.39 0 5.78 0 0 Z " fill="#000000" transform="translate(12,19)"/>
<path d="M0 0 C1.98 0.495 1.98 0.495 4 1 C3.67 2.32 3.34 3.64 3 5 C1.68 4.67 0.36 4.34 -1 4 C-0.67 2.68 -0.34 1.36 0 0 Z " fill="#191919" transform="translate(13,12)"/>
</svg>
