<?xml version="1.0" encoding="UTF-8"?>
<svg version="1.1" xmlns="http://www.w3.org/2000/svg" width="50" height="50">
<path d="M0 0 C12.54 0 25.08 0 38 0 C38.02290734 5.5359399 38.04283491 11.07171655 38.05493164 16.60766602 C38.05997244 18.4924373 38.06680498 20.37720465 38.07543945 22.26196289 C38.08751617 24.96501636 38.09323068 27.66801831 38.09765625 30.37109375 C38.10281754 31.21900986 38.10797882 32.06692596 38.11329651 32.9405365 C38.11349195 34.96071068 38.06206211 36.98077934 38 39 C36.21169552 40.78830448 33.80418848 40.12848711 31.42358398 40.13894653 C30.64442627 40.1369223 29.86526855 40.13489807 29.0625 40.1328125 C27.86959351 40.13424759 27.86959351 40.13424759 26.65258789 40.13571167 C24.9679354 40.13639343 23.28328029 40.13453943 21.59863281 40.13037109 C19.01100803 40.12502275 16.42355684 40.13031619 13.8359375 40.13671875 C12.20312461 40.13605797 10.57031184 40.1347768 8.9375 40.1328125 C8.15834229 40.13483673 7.37918457 40.13686096 6.57641602 40.13894653 C1.11495105 40.11495105 1.11495105 40.11495105 0 39 C-0.08865208 36.1156618 -0.11521296 33.25537842 -0.09765625 30.37109375 C-0.0962413 29.50686295 -0.09482635 28.64263214 -0.09336853 27.75221252 C-0.08775239 24.98060708 -0.07519719 22.2090812 -0.0625 19.4375 C-0.05748708 17.5631522 -0.05292381 15.68880315 -0.04882812 13.81445312 C-0.03862681 9.20957979 -0.01905467 4.6048794 0 0 Z " fill="#EFEFEF" transform="translate(6,6)"/>
<path d="M0 0 C12.54 0 25.08 0 38 0 C38.02290734 5.5359399 38.04283491 11.07171655 38.05493164 16.60766602 C38.05997244 18.4924373 38.06680498 20.37720465 38.07543945 22.26196289 C38.08751617 24.96501636 38.09323068 27.66801831 38.09765625 30.37109375 C38.10281754 31.21900986 38.10797882 32.06692596 38.11329651 32.9405365 C38.11349195 34.96071068 38.06206211 36.98077934 38 39 C36.21169552 40.78830448 33.80418848 40.12848711 31.42358398 40.13894653 C30.64442627 40.1369223 29.86526855 40.13489807 29.0625 40.1328125 C27.86959351 40.13424759 27.86959351 40.13424759 26.65258789 40.13571167 C24.9679354 40.13639343 23.28328029 40.13453943 21.59863281 40.13037109 C19.01100803 40.12502275 16.42355684 40.13031619 13.8359375 40.13671875 C12.20312461 40.13605797 10.57031184 40.1347768 8.9375 40.1328125 C8.15834229 40.13483673 7.37918457 40.13686096 6.57641602 40.13894653 C1.11495105 40.11495105 1.11495105 40.11495105 0 39 C-0.08865208 36.1156618 -0.11521296 33.25537842 -0.09765625 30.37109375 C-0.0962413 29.50686295 -0.09482635 28.64263214 -0.09336853 27.75221252 C-0.08775239 24.98060708 -0.07519719 22.2090812 -0.0625 19.4375 C-0.05748708 17.5631522 -0.05292381 15.68880315 -0.04882812 13.81445312 C-0.03862681 9.20957979 -0.01905467 4.6048794 0 0 Z M2 2 C1.979375 7.424375 1.95875 12.84875 1.9375 18.4375 C1.928396 20.15122803 1.91929199 21.86495605 1.90991211 23.63061523 C1.90699284 24.98160727 1.90444431 26.33260019 1.90234375 27.68359375 C1.89722778 28.39100708 1.89211182 29.09842041 1.88684082 29.82727051 C1.88652968 31.55192617 1.93774239 33.27646838 2 35 C3.67673649 36.67673649 5.72855076 36.12787817 7.96655273 36.13894653 C8.65821533 36.1369223 9.34987793 36.13489807 10.0625 36.1328125 C10.76898682 36.13376923 11.47547363 36.13472595 12.20336914 36.13571167 C13.69970793 36.13639333 15.19604967 36.13454005 16.69238281 36.13037109 C18.99030157 36.12502257 21.28802486 36.13031651 23.5859375 36.13671875 C25.03645877 36.13605797 26.48697991 36.1347768 27.9375 36.1328125 C28.6291626 36.13483673 29.3208252 36.13686096 30.03344727 36.13894653 C33.29735638 36.40230733 33.29735638 36.40230733 36 35 C36.0884283 32.55196233 36.11535972 30.13155206 36.09765625 27.68359375 C36.09664917 27.03588013 36.09564209 26.3881665 36.09460449 25.7208252 C36.08935843 23.29303221 36.07539725 20.86526439 36.0625 18.4375 C36.041875 13.013125 36.02125 7.58875 36 2 C24.78 2 13.56 2 2 2 Z " fill="#000000" transform="translate(6,6)"/>
<path d="M0 0 C3.3125 -0.25 3.3125 -0.25 7 0 C8.9375 1.875 8.9375 1.875 10 4 C10 4.66 10 5.32 10 6 C12.31 4.02 14.62 2.04 17 0 C17.66 0.33 18.32 0.66 19 1 C17.02 3.31 15.04 5.62 13 8 C13.5053125 8.78246094 14.010625 9.56492187 14.53125 10.37109375 C15.50578125 11.88896484 15.50578125 11.88896484 16.5 13.4375 C17.1496875 14.44683594 17.799375 15.45617187 18.46875 16.49609375 C20 19 20 19 20 20 C16.75 20.375 16.75 20.375 13 20 C10.5625 17 10.5625 17 9 14 C6.69 15.98 4.38 17.96 2 20 C1.34 19.67 0.68 19.34 0 19 C1.98 16.69 3.96 14.38 6 12 C4.43358249 7.69235185 2.31663844 3.93828536 0 0 Z " fill="#212121" transform="translate(15,15)"/>
<path d="M0 0 C4.58467467 1.54250736 6.62305097 5.19703309 9.25 9 C9.70890625 9.64195313 10.1678125 10.28390625 10.640625 10.9453125 C14 15.72442336 14 15.72442336 14 18 C9.41532533 16.45749264 7.37694903 12.80296691 4.75 9 C4.06164062 8.03707031 4.06164062 8.03707031 3.359375 7.0546875 C0 2.27557664 0 2.27557664 0 0 Z " fill="#DDDDDD" transform="translate(18,16)"/>
<path d="M0 0 C0.66 0 1.32 0 2 0 C3.44734806 1.92689109 4.810047 3.91793957 6.125 5.9375 C6.84945313 7.03964844 7.57390625 8.14179688 8.3203125 9.27734375 C10 12 10 12 10 13 C8.02 13 6.04 13 4 13 C4.99 12.67 5.98 12.34 7 12 C6.4946875 11.30132812 5.989375 10.60265625 5.46875 9.8828125 C4.8190625 8.97273438 4.169375 8.06265625 3.5 7.125 C2.8503125 6.22007813 2.200625 5.31515625 1.53125 4.3828125 C0 2 0 2 0 0 Z " fill="#1D1D1D" transform="translate(25,22)"/>
<path d="M0 0 C0.66 0.33 1.32 0.66 2 1 C0.02 3.31 -1.96 5.62 -4 8 C-6.4375 7.25 -6.4375 7.25 -9 6 C-9.8125 3.875 -9.8125 3.875 -10 2 C-8.515 2.99 -8.515 2.99 -7 4 C-7 4.66 -7 5.32 -7 6 C-4.69 4.02 -2.38 2.04 0 0 Z " fill="#292929" transform="translate(32,15)"/>
</svg>
